<?xml version="1.0" encoding="UTF-8"?>
<svg id="Layer_2" data-name="Layer 2" xmlns="http://www.w3.org/2000/svg" viewBox="0 0 520.4 148.01">
  <defs>
    <style>
      .cls-1 {
        stroke-width: 11.99px;
      }

      .cls-1, .cls-2 {
        fill: none;
        stroke: #fff;
        stroke-linecap: round;
        stroke-linejoin: round;
      }

      .cls-3 {
        fill: #fff;
      }

      .cls-2 {
        stroke-width: 19.19px;
      }
    </style>
  </defs>
  <g id="Layer_1-2" data-name="Layer 1">
    <g>
      <g>
        <g>
          <g>
            <circle class="cls-1" cx="152.67" cy="41.91" r="15.9"/>
            <line class="cls-1" x1="168.57" y1="41.91" x2="168.57" y2="16.76"/>
          </g>
          <g>
            <circle class="cls-1" cx="322.72" cy="41.91" r="15.9"/>
            <line class="cls-1" x1="338.62" y1="41.91" x2="338.62" y2="58.13"/>
          </g>
          <g>
            <path class="cls-3" d="m196.79,7.38c0,4.17-3.3,7.47-7.39,7.47s-7.47-3.3-7.47-7.47,3.39-7.38,7.56-7.38,7.3,3.39,7.3,7.38Zm-13.9,20.16c0-3.04.09-3.82.87-5.3.96-1.91,3.21-3.21,5.56-3.21s4.52,1.3,5.47,3.21c.78,1.48.87,2.17.87,5.3v28.24c0,3.04-.09,3.82-.87,5.3-.96,1.91-3.21,3.21-5.47,3.21s-4.6-1.3-5.56-3.21c-.78-1.48-.87-2.17-.87-5.3v-28.24Z"/>
            <path class="cls-3" d="m266.47,7.38c0,4.17-3.3,7.47-7.39,7.47s-7.47-3.3-7.47-7.47,3.39-7.38,7.56-7.38,7.3,3.39,7.3,7.38Zm-13.9,20.16c0-3.04.09-3.82.87-5.3.96-1.91,3.21-3.21,5.56-3.21s4.52,1.3,5.47,3.21c.78,1.48.87,2.17.87,5.3v28.24c0,3.04-.09,3.82-.87,5.3-.96,1.91-3.21,3.21-5.47,3.21s-4.6-1.3-5.56-3.21c-.78-1.48-.87-2.17-.87-5.3v-28.24Z"/>
            <path class="cls-3" d="m290.88,55.78c0,3.04-.09,3.82-.87,5.3-.96,1.91-3.21,3.21-5.47,3.21s-4.6-1.3-5.56-3.21c-.78-1.48-.87-2.17-.87-5.3v-24.59c-3.39.09-5.3-.52-6.43-1.83-.96-1.22-1.48-2.52-1.48-3.91,0-2.95,1.91-5.21,4.95-5.65q.87-.17,2.95-.17v-6.6c0-3.04.09-3.82.87-5.21.96-1.91,3.21-3.21,5.56-3.21s4.52,1.3,5.47,3.13c.78,1.48.87,2.17.87,5.3v6.6h2.35c2.78,0,3.56.09,4.87.78,1.65.87,2.87,2.95,2.87,5.04s-1.22,4.17-2.87,4.95c-1.39.7-2,.78-4.87.78h-2.35v24.59Z"/>
            <path class="cls-3" d="m364.82,55.78c0,3.04-.09,3.82-.87,5.3-.96,1.91-3.21,3.21-5.47,3.21s-4.6-1.3-5.56-3.21c-.78-1.48-.87-2.17-.87-5.3V8.43c0-3.04.09-3.82.87-5.21.96-1.91,3.21-3.21,5.56-3.21s4.52,1.3,5.47,3.13c.78,1.48.87,2.17.87,5.3v47.35Z"/>
          </g>
          <path class="cls-1" d="m207.04,72.32c0,8.78,7.12,15.9,15.9,15.9s15.9-7.12,15.9-15.9"/>
          <g>
            <circle class="cls-1" cx="222.94" cy="42.23" r="15.9"/>
            <line class="cls-1" x1="238.84" y1="42.23" x2="238.84" y2="42.23"/>
          </g>
        </g>
        <g>
          <g>
            <path class="cls-3" d="m321.58,117.92c-12.07,0-21.9-9.82-21.9-21.9s9.82-21.9,21.9-21.9,21.9,9.82,21.9,21.9-9.82,21.9-21.9,21.9Zm0-31.81c-5.46,0-9.91,4.45-9.91,9.91s4.44,9.91,9.91,9.91,9.91-4.45,9.91-9.91-4.44-9.91-9.91-9.91Z"/>
            <path class="cls-3" d="m337.48,118.24c-3.31,0-5.99-2.68-5.99-5.99v-16.22c0-3.31,2.68-5.99,5.99-5.99s5.99,2.68,5.99,5.99v16.22c0,3.31-2.68,5.99-5.99,5.99Z"/>
          </g>
          <g>
            <path class="cls-3" d="m270.3,148.01c-12.07,0-21.9-9.82-21.9-21.9,0-3.31,2.68-5.99,5.99-5.99s5.99,2.68,5.99,5.99c0,5.46,4.44,9.91,9.91,9.91s9.91-4.45,9.91-9.91c0-3.31,2.68-5.99,5.99-5.99s5.99,2.68,5.99,5.99c0,12.07-9.82,21.9-21.9,21.9Z"/>
            <g>
              <path class="cls-3" d="m270.3,117.92c-12.07,0-21.9-9.82-21.9-21.9s9.82-21.9,21.9-21.9,21.9,9.82,21.9,21.9-9.82,21.9-21.9,21.9Zm0-31.81c-5.46,0-9.91,4.45-9.91,9.91s4.44,9.91,9.91,9.91,9.91-4.45,9.91-9.91-4.44-9.91-9.91-9.91Z"/>
              <path class="cls-3" d="m286.2,102.02c-.39,0-.78-.04-1.17-.12-.38-.08-.76-.19-1.12-.34s-.71-.34-1.04-.55c-.32-.22-.63-.47-.91-.75-.27-.27-.53-.58-.74-.91-.22-.32-.4-.67-.55-1.03-.15-.37-.27-.74-.35-1.13-.07-.38-.11-.78-.11-1.17s.04-.78.11-1.17c.08-.38.2-.76.35-1.12.15-.36.33-.71.55-1.03.21-.33.47-.64.74-.92.28-.27.59-.52.91-.74.33-.22.68-.4,1.04-.55.36-.15.74-.27,1.12-.34,1.95-.4,4.02.24,5.41,1.63.28.28.53.59.74.92.22.32.41.67.56,1.03s.26.74.34,1.12c.08.39.12.78.12,1.17s-.04.79-.12,1.17c-.08.39-.19.76-.34,1.13-.15.36-.34.71-.56,1.03-.21.33-.46.64-.74.91-1.12,1.12-2.66,1.76-4.24,1.76Z"/>
            </g>
          </g>
          <g>
            <path class="cls-3" d="m350.73,80.52c0-4.43,2.52-7.38,6.34-7.38,2.52,0,3.91.87,6.17,4.17,3.56-3.21,6.69-4.43,11.21-4.43,3.13,0,6.34.78,8.69,2.17,1.3.7,2.09,1.48,3.56,3.39,5.13-4.17,8.51-5.56,13.38-5.56,8.86,0,15.38,6.26,15.38,14.77v22.24c0,3.04-.09,3.82-.87,5.3-.96,1.91-3.21,3.21-5.47,3.21s-4.6-1.3-5.56-3.21c-.78-1.48-.87-2.17-.87-5.3v-19.38c0-3.91-2.61-6.6-6.52-6.6s-6.69,2.69-6.69,6.6v19.38c0,3.04-.09,3.82-.87,5.3-.96,1.91-3.21,3.21-5.47,3.21s-4.6-1.3-5.56-3.21c-.78-1.48-.87-2.17-.87-5.3v-18.16c0-4.95-2.43-7.82-6.6-7.82-3.82,0-6.6,2.78-6.6,6.6v19.38c0,3.04-.09,3.82-.87,5.3-.96,1.91-3.21,3.21-5.47,3.21s-4.6-1.3-5.56-3.21c-.78-1.48-.87-2.17-.87-5.3v-29.37Z"/>
            <path class="cls-3" d="m435.78,76.61c3.82-2.78,6.52-3.74,10.34-3.74,10.95,0,19.81,10.08,19.81,22.76s-8.51,23.02-19.72,23.02c-4.78,0-7.91-1.48-10.6-5.04-1.39,3.3-3.21,4.78-5.99,4.78-3.91,0-6.6-2.78-6.6-6.78v-49.09c0-3.04.09-3.82.87-5.3.96-1.91,3.21-3.21,5.56-3.21s4.52,1.3,5.47,3.21c.78,1.48.87,2.17.87,5.3v14.08Zm-.09,19.03c0,6.43,3.74,11.12,8.86,11.12s8.69-4.78,8.69-11.03-3.74-10.95-8.69-10.95-8.86,4.69-8.86,10.86Z"/>
            <path class="cls-3" d="m485.91,61.49c0,4.17-3.3,7.47-7.39,7.47s-7.47-3.3-7.47-7.47,3.39-7.38,7.56-7.38,7.3,3.39,7.3,7.38Zm-13.9,20.16c0-3.04.09-3.82.87-5.3.96-1.91,3.21-3.21,5.56-3.21s4.52,1.3,5.47,3.21c.78,1.48.87,2.17.87,5.3v28.24c0,3.04-.09,3.82-.87,5.3-.96,1.91-3.21,3.21-5.47,3.21s-4.6-1.3-5.56-3.21c-.78-1.48-.87-2.17-.87-5.3v-28.24Z"/>
            <path class="cls-3" d="m510.33,109.89c0,3.04-.09,3.82-.87,5.3-.96,1.91-3.21,3.21-5.47,3.21s-4.6-1.3-5.56-3.21c-.78-1.48-.87-2.17-.87-5.3v-24.59c-3.39.09-5.3-.52-6.43-1.83-.96-1.22-1.48-2.52-1.48-3.91,0-2.95,1.91-5.21,4.95-5.65q.87-.17,2.95-.17v-6.6c0-3.04.09-3.82.87-5.21.96-1.91,3.21-3.21,5.56-3.21s4.52,1.3,5.47,3.13c.78,1.48.87,2.17.87,5.3v6.6h2.35c2.78,0,3.56.09,4.87.78,1.65.87,2.87,2.95,2.87,5.04s-1.22,4.17-2.87,4.95c-1.39.7-2,.78-4.87.78h-2.35v24.59Z"/>
          </g>
        </g>
      </g>
      <g>
        <path class="cls-2" d="m9.6,104.62c0,14.06,11.4,25.46,25.46,25.46s25.46-11.4,25.46-25.46"/>
        <g>
          <circle class="cls-2" cx="35.06" cy="56.45" r="25.46"/>
          <line class="cls-2" x1="60.51" y1="56.45" x2="60.51" y2="16.19"/>
        </g>
      </g>
    </g>
  </g>
</svg>